<svg width="51" height="38" viewBox="0 0 51 38" fill="none" xmlns="http://www.w3.org/2000/svg">
<path d="M45.6048 0C36.8503 4.87701 29.3174 16.1551 29.3174 27.0267C29.3174 31.1925 31.9641 38 40.2096 38C46.9281 38 51 33.8342 51 28.0428C51 23.6738 48.0479 19.1016 42.0419 19.1016C42.3473 14.7326 46.7246 9.14439 50.5928 6.29947L45.6048 0ZM16.2874 0C7.53293 4.87701 0 16.1551 0 27.0267C0 31.1925 2.64671 38 10.8922 38C17.6108 38 21.6826 33.8342 21.6826 28.0428C21.6826 23.6738 18.7305 19.1016 12.7246 19.1016C13.0299 14.7326 17.4072 9.14439 21.2754 6.29947L16.2874 0Z" fill="white"/>
</svg>
